<?xml version="1.0" standalone="no"?>
<!DOCTYPE svg PUBLIC "-//W3C//DTD SVG 20010904//EN"
 "http://www.w3.org/TR/2001/REC-SVG-20010904/DTD/svg10.dtd">
<svg version="1.0" xmlns="http://www.w3.org/2000/svg"
 width="1218.000000pt" height="1218.000000pt" viewBox="0 0 1218.000000 1218.000000"
 preserveAspectRatio="xMidYMid meet">
<metadata>
Created by potrace 1.14, written by Peter Selinger 2001-2017
</metadata>
<g transform="translate(0.000000,1218.000000) scale(0.100000,-0.100000)"
fill="#000000" stroke="none">
<path d="M5706 12125 c-4 -13 -33 -15 -175 -15 -102 0 -172 -4 -176 -10 -3 -6
-51 -10 -109 -10 -80 0 -106 -3 -116 -15 -9 -11 -32 -15 -81 -15 -39 0 -69 -4
-69 -10 0 -5 -20 -10 -44 -10 -26 0 -48 -6 -56 -15 -8 -10 -31 -15 -66 -15
-29 0 -56 -4 -59 -10 -3 -5 -23 -10 -44 -10 -22 0 -44 -6 -51 -15 -8 -9 -29
-15 -56 -15 -23 0 -46 -4 -49 -10 -3 -5 -23 -10 -44 -10 -22 0 -44 -6 -51 -15
-7 -8 -28 -15 -46 -15 -19 0 -34 -4 -34 -10 0 -5 -20 -10 -44 -10 -26 0 -48
-6 -56 -15 -7 -8 -25 -15 -41 -15 -15 0 -31 -4 -34 -10 -3 -5 -26 -10 -50 -10
-29 0 -45 -5 -49 -15 -3 -8 -14 -15 -25 -15 -11 0 -23 -4 -26 -10 -3 -5 -19
-10 -34 -10 -16 0 -34 -7 -41 -15 -7 -8 -21 -15 -31 -15 -11 0 -19 -4 -19 -10
0 -5 -20 -10 -44 -10 -26 0 -48 -6 -56 -15 -7 -8 -21 -15 -31 -15 -11 0 -19
-4 -19 -10 0 -5 -13 -10 -29 -10 -16 0 -34 -7 -41 -15 -7 -8 -21 -15 -31 -15
-10 0 -21 -4 -24 -10 -3 -5 -19 -10 -34 -10 -16 0 -34 -7 -41 -15 -7 -8 -21
-15 -31 -15 -11 0 -19 -4 -19 -10 0 -5 -8 -10 -19 -10 -10 0 -24 -7 -31 -15
-7 -8 -21 -15 -31 -15 -11 0 -19 -4 -19 -10 0 -5 -12 -10 -28 -10 -15 0 -39
-11 -54 -25 -15 -14 -34 -25 -41 -25 -8 0 -20 -7 -27 -15 -7 -8 -21 -15 -31
-15 -11 0 -19 -4 -19 -10 0 -5 -8 -10 -19 -10 -10 0 -24 -7 -31 -15 -7 -8 -19
-15 -27 -15 -8 0 -24 -11 -35 -25 -13 -17 -29 -25 -50 -25 -20 0 -37 -8 -50
-25 -11 -14 -27 -25 -37 -25 -10 0 -28 -11 -41 -25 -13 -14 -32 -25 -42 -25
-10 0 -18 -4 -18 -10 0 -5 -8 -10 -18 -10 -10 0 -36 -18 -57 -40 -21 -22 -45
-40 -53 -40 -8 0 -23 -11 -34 -25 -11 -14 -27 -25 -37 -25 -10 0 -28 -11 -41
-25 -13 -14 -30 -25 -38 -25 -8 0 -23 -11 -34 -25 -11 -14 -27 -25 -37 -25 -9
0 -39 -22 -66 -50 -27 -27 -55 -50 -62 -50 -7 0 -34 -22 -60 -50 -26 -27 -54
-50 -63 -50 -8 0 -53 -38 -100 -85 -47 -47 -89 -85 -95 -85 -6 0 -45 -34 -87
-75 -42 -41 -82 -75 -90 -75 -19 0 -58 -42 -58 -62 0 -10 -10 -18 -22 -20 -13
-2 -24 -11 -26 -22 -5 -24 -26 -46 -45 -46 -17 0 -57 -42 -57 -60 0 -7 -61
-74 -135 -148 -74 -74 -135 -140 -135 -146 0 -6 -29 -41 -65 -76 -36 -35 -65
-70 -65 -78 0 -7 -11 -25 -25 -40 -14 -15 -25 -32 -25 -37 0 -6 -22 -33 -50
-60 -27 -27 -50 -55 -50 -62 0 -7 -9 -24 -21 -37 -12 -13 -21 -28 -20 -33 0
-4 -13 -22 -30 -39 -16 -17 -29 -36 -27 -41 2 -6 -14 -27 -35 -47 -20 -20 -37
-43 -37 -50 0 -8 -7 -19 -15 -26 -8 -7 -15 -19 -15 -27 0 -7 -11 -26 -24 -40
-14 -15 -23 -30 -21 -34 3 -4 -2 -12 -10 -19 -8 -7 -15 -21 -15 -30 0 -10 -11
-27 -25 -38 -14 -11 -25 -27 -25 -35 0 -8 -7 -20 -15 -27 -8 -7 -15 -19 -15
-27 0 -7 -11 -26 -25 -41 -15 -15 -24 -35 -21 -45 2 -9 -2 -24 -10 -31 -8 -8
-14 -21 -14 -29 0 -7 -11 -24 -25 -37 -15 -14 -25 -35 -25 -51 0 -14 -7 -32
-15 -39 -8 -7 -15 -21 -15 -31 0 -11 -4 -19 -10 -19 -5 0 -10 -8 -10 -19 0
-10 -7 -24 -15 -31 -8 -7 -15 -21 -15 -31 0 -11 -4 -19 -10 -19 -5 0 -10 -8
-10 -19 0 -10 -7 -24 -15 -31 -8 -7 -15 -21 -15 -31 0 -11 -4 -19 -10 -19 -5
0 -10 -8 -10 -19 0 -10 -7 -24 -16 -32 -9 -7 -14 -22 -11 -36 2 -13 -2 -28 -9
-34 -8 -6 -14 -24 -14 -39 0 -15 -7 -33 -15 -40 -8 -7 -15 -21 -15 -31 0 -11
-4 -19 -10 -19 -5 0 -10 -8 -10 -19 0 -10 -7 -24 -16 -32 -9 -7 -14 -22 -11
-36 2 -13 -2 -28 -9 -34 -8 -6 -14 -24 -14 -39 0 -15 -7 -33 -16 -41 -9 -7
-14 -22 -11 -36 2 -13 -2 -28 -9 -34 -8 -6 -14 -19 -14 -29 0 -10 -7 -23 -16
-31 -8 -7 -13 -21 -11 -31 3 -10 -1 -25 -9 -32 -8 -8 -14 -32 -14 -54 0 -24
-6 -45 -16 -53 -9 -7 -14 -22 -11 -36 2 -13 -2 -28 -9 -34 -8 -6 -14 -30 -14
-54 0 -26 -6 -47 -16 -56 -9 -8 -14 -25 -12 -46 1 -18 -3 -38 -10 -45 -6 -6
-12 -31 -12 -54 0 -26 -6 -47 -16 -55 -12 -10 -15 -25 -11 -62 3 -35 0 -50 -9
-54 -10 -3 -14 -23 -14 -63 0 -39 -5 -62 -15 -70 -10 -8 -15 -31 -15 -66 0
-30 -4 -54 -10 -54 -6 0 -10 -30 -10 -69 0 -50 -4 -72 -16 -81 -12 -11 -15
-33 -13 -112 1 -63 -3 -104 -10 -111 -7 -7 -11 -67 -11 -176 0 -139 -3 -167
-17 -183 -15 -17 -15 -19 0 -36 24 -26 24 -147 1 -156 -16 -6 -16 -8 0 -24 21
-24 21 -60 -1 -84 -15 -17 -15 -19 0 -36 21 -24 22 -95 2 -112 -19 -16 -19
-39 0 -46 12 -5 15 -33 15 -165 0 -99 4 -159 10 -159 6 0 10 -38 10 -94 0 -71
4 -97 15 -106 11 -9 15 -35 15 -105 0 -63 4 -95 12 -97 7 -3 11 -23 9 -55 -1
-35 3 -56 14 -66 10 -10 15 -34 15 -70 0 -34 5 -57 12 -59 7 -3 11 -23 9 -55
-1 -35 3 -54 14 -63 9 -8 15 -29 15 -55 0 -24 6 -48 14 -54 7 -6 11 -21 9 -34
-3 -14 2 -29 11 -36 10 -8 16 -29 16 -53 0 -22 6 -46 14 -54 8 -7 12 -22 9
-32 -2 -10 3 -24 11 -31 9 -8 16 -21 16 -30 0 -9 6 -23 12 -29 7 -7 11 -27 10
-46 -2 -20 3 -39 12 -49 9 -9 16 -27 16 -42 0 -15 6 -33 14 -41 8 -7 12 -22 9
-32 -2 -10 3 -24 11 -31 9 -8 16 -29 16 -47 0 -19 5 -34 10 -34 6 0 10 -8 10
-19 0 -10 7 -24 15 -31 8 -7 15 -22 15 -35 0 -24 26 -81 41 -90 5 -4 9 -21 9
-40 0 -20 6 -35 15 -39 8 -3 12 -11 9 -19 -3 -8 2 -20 11 -27 8 -7 15 -24 16
-39 0 -14 9 -39 20 -56 10 -16 22 -37 25 -45 10 -25 34 -74 43 -90 5 -8 17
-31 25 -50 9 -19 21 -42 25 -50 5 -8 17 -31 25 -50 9 -19 21 -42 25 -50 5 -8
17 -31 25 -50 9 -19 21 -42 25 -50 5 -8 16 -31 25 -50 8 -19 24 -45 35 -57 12
-12 21 -29 21 -36 0 -8 7 -20 15 -27 8 -7 15 -19 15 -27 0 -8 11 -24 25 -35
14 -11 25 -27 25 -37 0 -10 11 -28 25 -41 14 -13 25 -30 25 -38 0 -8 11 -23
25 -34 14 -11 25 -25 25 -32 0 -24 31 -76 66 -108 19 -18 34 -40 34 -49 0 -10
11 -26 25 -37 14 -11 25 -27 25 -35 0 -9 16 -31 35 -50 19 -19 35 -41 35 -49
0 -8 13 -27 30 -43 16 -15 27 -31 25 -35 -2 -4 18 -30 45 -58 28 -27 50 -56
50 -64 0 -17 641 -658 659 -658 7 0 47 -34 89 -75 42 -41 81 -75 87 -75 6 0
33 -22 60 -50 27 -27 55 -50 63 -50 8 0 37 -22 65 -50 28 -27 56 -50 62 -50 6
0 26 -16 45 -35 19 -19 42 -35 51 -35 10 0 26 -11 37 -25 11 -14 26 -25 34
-25 8 0 25 -11 38 -25 13 -14 31 -25 41 -25 9 0 22 -7 29 -15 7 -8 18 -15 24
-15 7 0 23 -11 36 -25 13 -14 30 -25 37 -25 8 0 26 -11 41 -25 15 -14 32 -25
38 -25 6 0 21 -11 34 -25 13 -14 32 -25 42 -25 10 0 18 -4 18 -10 0 -5 8 -10
19 -10 10 0 24 -7 31 -15 7 -8 19 -15 27 -15 7 0 24 -9 36 -21 12 -11 38 -27
57 -35 19 -9 42 -20 50 -25 8 -4 31 -16 50 -25 19 -8 42 -20 50 -25 8 -4 31
-16 50 -25 19 -8 42 -20 50 -25 16 -9 65 -33 90 -43 8 -3 29 -15 45 -25 17
-11 37 -20 46 -20 9 -1 22 -8 29 -16 7 -8 25 -15 41 -15 16 0 29 -4 29 -10 0
-5 8 -10 19 -10 10 0 24 -7 31 -15 7 -8 25 -15 41 -15 15 0 31 -4 34 -10 3 -5
14 -10 24 -10 10 0 24 -7 31 -15 7 -8 25 -15 41 -15 16 0 29 -4 29 -10 0 -5
15 -10 34 -10 19 0 37 -4 41 -9 9 -15 66 -41 90 -41 13 0 28 -7 35 -15 7 -8
25 -15 41 -15 15 0 31 -4 34 -10 3 -5 19 -10 34 -10 16 0 34 -7 41 -15 8 -9
30 -15 56 -15 24 0 44 -4 44 -10 0 -5 15 -10 34 -10 18 0 39 -7 46 -15 8 -10
31 -15 66 -15 30 0 54 -4 54 -10 0 -5 20 -10 44 -10 26 0 48 -6 56 -15 8 -10
31 -15 66 -15 29 0 56 -4 59 -10 3 -5 26 -10 49 -10 27 0 48 -6 56 -15 9 -10
32 -15 76 -15 34 0 66 -4 69 -10 3 -5 41 -10 84 -10 58 0 82 -4 91 -15 10 -12
38 -15 131 -15 73 0 119 -4 119 -10 0 -6 68 -10 184 -10 151 0 186 -3 196 -15
19 -22 451 -22 470 0 10 12 41 15 156 15 89 0 144 4 144 10 0 6 46 10 119 10
93 0 121 3 131 15 9 11 33 15 91 15 43 0 81 4 84 10 3 5 41 10 84 10 58 0 82
4 91 15 8 10 31 15 66 15 29 0 56 4 59 10 3 5 23 10 44 10 22 0 44 6 51 15 8
9 29 15 56 15 23 0 46 5 49 10 3 6 30 10 59 10 35 0 58 5 66 15 7 8 25 15 41
15 15 0 31 4 34 10 3 5 19 10 34 10 16 0 34 7 41 15 7 8 25 15 41 15 15 0 31
4 34 10 3 5 19 10 34 10 16 0 34 7 41 15 7 8 21 15 31 15 11 0 19 5 19 10 0 6
13 10 29 10 16 0 34 7 41 15 7 8 28 15 46 15 19 0 34 5 34 10 0 6 13 10 29 10
16 0 34 7 41 15 7 8 21 15 31 15 10 0 21 5 24 10 3 6 19 10 34 10 16 0 34 7
41 15 7 8 21 15 31 15 11 0 19 5 19 10 0 6 8 10 19 10 10 0 24 7 31 15 7 8 21
15 31 15 11 0 19 5 19 10 0 6 12 10 28 10 15 0 39 11 54 25 15 14 34 25 41 25
8 0 20 7 27 15 7 8 21 15 31 15 11 0 19 5 19 10 0 6 13 10 29 10 16 0 34 7 41
15 7 8 20 15 29 16 9 0 30 9 46 20 17 10 37 22 45 25 54 22 78 35 97 53 12 12
29 21 36 21 8 0 20 7 27 15 7 8 21 15 31 15 11 0 19 5 19 10 0 6 8 10 18 10
10 0 29 11 42 25 13 14 28 25 34 25 6 0 23 11 38 25 15 14 33 25 41 25 7 0 24
11 37 25 13 14 28 25 34 25 6 0 23 11 38 25 15 14 34 25 41 25 8 0 20 7 27 15
7 8 18 15 26 15 7 0 28 16 47 35 19 19 41 35 48 35 8 0 33 18 54 40 21 22 45
40 52 40 6 0 27 16 46 35 19 19 40 35 48 35 8 0 48 34 89 75 41 41 80 75 86
75 6 0 51 40 100 90 49 49 96 90 104 90 20 0 400 380 400 400 0 8 41 55 90
104 50 49 90 94 90 100 0 7 23 34 50 61 28 27 50 56 50 64 0 8 16 29 35 48 19
19 35 40 35 47 0 7 11 23 25 36 14 13 25 31 25 41 0 10 11 26 25 37 14 11 25
26 25 34 0 8 18 32 40 53 22 21 40 46 40 53 0 8 11 25 25 38 14 13 25 29 25
37 0 7 11 24 25 37 14 13 25 30 25 38 0 8 11 25 25 38 14 13 25 30 25 38 0 8
5 18 10 21 6 3 10 15 10 25 0 10 11 27 25 38 14 11 25 27 25 35 0 8 7 20 15
27 8 7 15 21 15 31 0 11 5 19 10 19 6 0 10 8 10 18 0 10 11 29 25 42 14 13 25
31 25 41 0 9 7 22 15 29 8 7 13 16 10 20 -3 4 2 13 10 20 8 7 15 21 15 31 0
10 4 20 9 24 12 7 41 64 41 80 0 7 7 18 16 26 8 7 13 21 11 31 -3 10 1 25 9
32 8 8 14 21 14 29 0 8 7 20 15 27 8 7 15 21 15 31 0 11 5 19 10 19 6 0 10 15
10 34 0 19 4 37 9 41 15 9 41 66 41 90 0 12 11 32 25 45 15 14 25 35 25 51 0
14 7 32 16 40 9 7 14 22 11 36 -2 13 2 28 9 34 8 6 14 24 14 39 0 15 7 33 16
41 9 7 14 22 11 36 -2 13 2 28 9 34 8 6 14 30 14 54 0 25 6 48 15 55 8 7 13
16 10 20 -3 4 2 13 10 20 9 8 15 30 15 56 0 29 5 46 16 52 13 7 16 20 12 62
-4 38 -2 53 8 57 8 3 14 20 14 39 0 22 6 37 15 41 12 4 15 19 14 61 -2 36 2
57 9 60 7 2 12 23 12 47 0 26 6 47 16 56 11 9 15 27 13 61 -2 27 2 53 9 60 7
7 12 43 12 89 0 57 4 80 15 89 12 10 15 30 14 79 -2 42 2 66 9 69 8 2 12 35
12 97 0 71 4 96 15 105 13 11 15 50 15 263 -1 165 2 253 9 260 14 14 14 40 0
54 -7 7 -10 95 -9 260 0 213 -2 252 -15 263 -12 10 -15 38 -15 139 0 83 -4
131 -12 139 -7 7 -10 40 -9 85 2 56 -1 77 -13 86 -12 10 -16 32 -16 81 0 49
-4 69 -14 73 -10 4 -13 17 -9 44 4 28 1 42 -11 52 -12 10 -16 31 -16 81 0 45
-4 70 -12 72 -7 3 -11 20 -10 45 2 26 -3 44 -13 53 -9 8 -15 29 -15 55 0 25
-5 45 -12 47 -7 3 -11 20 -10 45 2 26 -3 44 -13 53 -8 7 -15 25 -15 40 0 15
-6 33 -14 39 -7 6 -11 21 -9 34 3 14 -2 29 -11 36 -9 8 -16 25 -16 40 0 15 -6
33 -12 39 -7 7 -11 27 -10 45 2 21 -3 38 -12 46 -9 8 -16 21 -16 31 0 10 -6
23 -14 29 -7 6 -11 21 -9 34 3 14 -2 29 -11 36 -9 8 -16 20 -16 28 0 8 -6 21
-14 29 -8 7 -12 22 -9 32 2 10 -3 24 -11 31 -9 8 -16 21 -16 31 0 10 -7 23
-15 30 -8 7 -13 16 -10 20 3 4 -2 13 -10 20 -8 7 -15 28 -15 46 0 19 -4 34
-10 34 -5 0 -10 8 -10 19 0 10 -7 24 -15 31 -8 7 -15 21 -15 31 0 11 -4 19
-10 19 -5 0 -10 8 -10 19 0 10 -7 24 -15 31 -8 7 -15 21 -15 31 0 11 -4 19
-10 19 -5 0 -10 8 -10 19 0 10 -7 24 -15 31 -8 7 -15 21 -15 31 0 11 -4 19
-10 19 -5 0 -10 8 -10 19 0 10 -7 24 -15 31 -8 7 -15 21 -15 31 0 11 -4 19
-10 19 -5 0 -10 8 -10 19 0 10 -7 24 -15 31 -8 7 -15 19 -15 27 0 8 -11 24
-25 35 -14 11 -25 25 -25 32 0 17 -29 74 -41 81 -5 4 -9 14 -9 24 0 10 -11 28
-25 41 -14 13 -25 32 -25 42 0 10 -4 18 -10 18 -5 0 -10 8 -10 18 0 10 -11 29
-25 42 -14 13 -25 31 -25 41 0 9 -7 19 -15 23 -8 3 -15 14 -15 24 0 10 -11 29
-25 42 -14 13 -25 29 -25 36 0 7 -16 28 -35 47 -19 19 -35 40 -35 48 0 8 -22
37 -50 64 -27 27 -50 54 -50 61 0 6 -18 29 -40 50 -22 22 -40 46 -40 54 0 9
-27 42 -60 75 -33 33 -60 64 -60 71 0 14 -639 654 -654 654 -6 0 -45 34 -86
75 -41 41 -82 75 -90 75 -9 0 -37 23 -63 50 -26 28 -53 50 -60 50 -8 0 -24 11
-37 25 -13 14 -31 25 -40 25 -8 0 -30 15 -48 34 -31 34 -84 66 -106 66 -6 0
-28 18 -50 40 -21 22 -44 40 -51 40 -6 0 -22 11 -35 25 -13 14 -32 25 -42 25
-10 0 -18 5 -18 10 0 6 -8 10 -18 10 -10 0 -29 11 -42 25 -13 14 -31 25 -41
25 -10 0 -26 11 -37 25 -11 14 -26 25 -34 25 -8 0 -25 11 -38 25 -14 14 -35
25 -50 25 -15 0 -36 11 -50 25 -13 14 -31 25 -41 25 -10 0 -26 11 -37 25 -11
14 -27 25 -35 25 -8 0 -20 7 -27 15 -7 8 -21 15 -31 15 -11 0 -19 5 -19 10 0
6 -8 10 -19 10 -10 0 -24 7 -31 15 -7 8 -21 15 -31 15 -11 0 -19 5 -19 10 0 6
-8 10 -19 10 -10 0 -24 7 -31 15 -7 8 -21 15 -31 15 -11 0 -19 5 -19 10 0 6
-8 10 -19 10 -10 0 -24 7 -31 15 -7 8 -21 15 -31 15 -11 0 -19 5 -19 10 0 6
-15 10 -34 10 -19 0 -37 4 -41 9 -7 12 -64 41 -80 41 -7 0 -18 7 -25 15 -7 8
-25 15 -41 15 -16 0 -29 5 -29 10 0 6 -15 10 -34 10 -18 0 -39 7 -46 15 -7 8
-25 15 -41 15 -16 0 -29 5 -29 10 0 6 -15 10 -34 10 -19 0 -37 4 -41 9 -9 15
-66 41 -90 41 -13 0 -28 7 -35 15 -7 8 -25 15 -41 15 -15 0 -31 5 -34 10 -3 6
-19 10 -34 10 -16 0 -34 7 -41 15 -7 8 -25 15 -41 15 -15 0 -31 5 -34 10 -3 6
-19 10 -34 10 -16 0 -34 7 -41 15 -8 9 -30 15 -56 15 -24 0 -44 5 -44 10 0 6
-20 10 -44 10 -26 0 -48 6 -56 15 -8 10 -31 15 -66 15 -29 0 -56 5 -59 10 -3
6 -30 10 -59 10 -35 0 -58 5 -66 15 -9 11 -32 15 -81 15 -39 0 -69 4 -69 10 0
6 -35 10 -85 10 -67 0 -87 3 -91 15 -5 12 -29 15 -124 15 -69 0 -121 4 -125
10 -3 6 -48 10 -99 10 -71 0 -97 4 -106 15 -11 13 -65 15 -375 15 -313 0 -364
-2 -369 -15z m548 -701 c6 -16 8 -16 24 0 23 20 71 21 78 1 5 -12 30 -15 139
-15 79 0 136 -4 140 -10 3 -5 42 -10 86 -10 62 0 81 -3 85 -15 5 -12 25 -15
89 -15 46 0 87 -4 90 -10 3 -5 31 -10 61 -10 39 0 56 -4 60 -15 5 -11 22 -15
65 -15 33 0 59 -4 59 -10 0 -5 20 -10 44 -10 26 0 48 -6 56 -15 8 -9 29 -15
56 -15 23 0 46 -4 49 -10 3 -5 20 -10 36 -10 17 0 32 -6 35 -15 4 -10 20 -15
49 -15 24 0 47 -4 50 -10 3 -5 26 -10 51 -10 30 0 46 -5 50 -15 4 -8 14 -15
24 -15 11 0 22 -4 25 -10 3 -5 19 -10 34 -10 16 0 34 -7 41 -15 7 -8 25 -15
41 -15 15 0 31 -4 34 -10 3 -5 15 -10 26 -10 11 0 22 -7 25 -15 4 -9 19 -15
40 -15 19 0 34 -4 34 -10 0 -5 8 -10 19 -10 10 0 24 -7 31 -15 7 -8 21 -15 31
-15 11 0 19 -4 19 -10 0 -5 16 -10 35 -10 22 0 38 -6 41 -15 4 -8 14 -15 24
-15 11 0 22 -4 25 -10 3 -5 15 -10 26 -10 11 0 22 -7 25 -15 4 -8 14 -15 24
-15 11 0 22 -4 25 -10 3 -5 15 -10 26 -10 11 0 22 -7 25 -15 4 -8 14 -15 24
-15 11 0 22 -4 25 -10 3 -5 19 -10 34 -10 16 0 34 -7 41 -15 7 -8 21 -15 31
-15 11 0 19 -4 19 -10 0 -5 8 -10 19 -10 10 0 24 -7 31 -15 7 -8 18 -15 25
-15 16 0 73 -29 80 -41 4 -5 13 -9 22 -9 9 0 26 -11 39 -25 13 -14 30 -25 38
-25 8 0 18 -4 21 -10 3 -5 14 -10 24 -10 10 0 27 -11 37 -25 10 -14 26 -25 35
-25 9 0 22 -7 29 -15 7 -8 19 -15 28 -15 8 0 25 -11 38 -25 13 -14 29 -25 37
-25 7 0 28 -16 47 -35 19 -19 41 -35 51 -35 9 0 25 -11 35 -25 10 -14 26 -25
34 -25 9 0 38 -22 65 -50 27 -27 55 -50 63 -50 7 0 36 -22 64 -50 28 -27 55
-50 62 -50 6 0 41 -29 76 -65 35 -36 70 -65 78 -65 18 0 472 -453 472 -471 0
-8 29 -44 65 -79 36 -35 65 -71 65 -78 0 -8 23 -35 50 -60 28 -25 50 -53 50
-63 0 -9 23 -37 50 -63 28 -26 50 -55 50 -64 0 -10 11 -26 25 -36 14 -10 25
-26 25 -36 0 -9 11 -27 25 -40 14 -13 25 -30 25 -37 0 -8 16 -29 35 -47 19
-19 35 -40 35 -48 0 -9 7 -21 15 -28 8 -7 15 -20 15 -29 0 -9 11 -25 25 -35
14 -10 25 -27 25 -37 0 -10 11 -26 25 -37 14 -11 25 -29 25 -41 0 -12 5 -21
10 -21 6 0 10 -8 10 -19 0 -10 7 -24 15 -31 8 -7 15 -21 15 -31 0 -11 5 -19
10 -19 6 0 10 -9 10 -20 0 -11 7 -23 15 -26 8 -4 15 -17 15 -30 0 -13 5 -24
10 -24 6 0 10 -9 10 -20 0 -11 7 -23 15 -26 8 -4 15 -17 15 -30 0 -13 5 -24
10 -24 6 0 10 -8 10 -19 0 -10 7 -24 15 -31 8 -7 15 -21 15 -31 0 -11 5 -19
10 -19 6 0 10 -14 10 -30 0 -20 9 -39 25 -54 16 -15 25 -34 25 -54 0 -17 6
-32 15 -36 8 -3 15 -15 15 -26 0 -11 5 -20 10 -20 6 0 10 -15 10 -34 0 -18 7
-39 15 -46 8 -7 15 -25 15 -41 0 -16 5 -29 10 -29 6 0 10 -11 10 -24 0 -13 7
-26 15 -30 9 -3 15 -19 15 -41 0 -19 5 -35 10 -35 6 0 10 -15 10 -34 0 -21 6
-36 15 -40 8 -3 15 -14 15 -25 0 -11 5 -23 10 -26 6 -3 10 -26 10 -50 0 -29 5
-45 15 -49 9 -3 15 -19 15 -41 0 -19 5 -35 10 -35 6 0 10 -15 10 -34 0 -21 6
-36 15 -40 11 -4 15 -21 15 -66 0 -33 4 -60 10 -60 6 0 10 -20 10 -44 0 -26 6
-48 15 -56 10 -8 15 -31 15 -66 0 -30 5 -54 10 -54 6 0 10 -31 10 -74 0 -56 4
-75 15 -80 11 -4 15 -22 15 -76 0 -40 4 -70 10 -70 6 0 10 -39 10 -96 0 -81 3
-99 18 -110 16 -12 16 -13 -2 -27 -17 -12 -17 -14 -2 -20 14 -6 16 -47 16
-435 0 -371 -2 -431 -15 -442 -13 -11 -13 -14 2 -26 17 -13 17 -15 1 -25 -14
-8 -18 -24 -18 -79 0 -40 -4 -70 -10 -70 -6 0 -10 -35 -10 -85 0 -66 -3 -86
-16 -93 -14 -8 -14 -10 0 -21 20 -17 21 -47 1 -55 -10 -4 -15 -20 -15 -51 0
-25 -4 -45 -10 -45 -6 0 -10 -30 -10 -69 0 -49 -4 -72 -15 -81 -8 -7 -15 -25
-15 -41 0 -15 -4 -31 -10 -34 -5 -3 -10 -21 -10 -40 0 -20 -6 -35 -15 -39 -10
-4 -15 -20 -15 -51 0 -25 -4 -45 -10 -45 -5 0 -10 -16 -10 -35 0 -22 -6 -38
-15 -41 -11 -4 -15 -21 -15 -55 0 -27 -4 -49 -10 -49 -5 0 -10 -13 -10 -29 0
-16 -7 -34 -15 -41 -8 -7 -15 -25 -15 -41 0 -15 -4 -31 -10 -34 -5 -3 -10 -21
-10 -40 0 -20 -6 -35 -15 -39 -9 -3 -15 -19 -15 -41 0 -19 -4 -35 -10 -35 -5
0 -10 -9 -10 -20 0 -11 -7 -23 -15 -26 -8 -4 -15 -17 -15 -30 0 -13 -4 -24
-10 -24 -5 0 -10 -15 -10 -34 0 -21 -6 -36 -15 -40 -9 -3 -15 -19 -15 -41 0
-19 -4 -35 -10 -35 -5 0 -10 -9 -10 -20 0 -11 -7 -23 -15 -26 -8 -4 -15 -17
-15 -30 0 -13 -4 -24 -10 -24 -5 0 -10 -15 -10 -34 0 -21 -6 -36 -15 -40 -8
-3 -15 -13 -15 -22 0 -9 -11 -27 -25 -40 -16 -15 -25 -34 -25 -54 0 -16 -4
-30 -10 -30 -5 0 -10 -11 -10 -24 0 -13 -7 -26 -15 -30 -8 -3 -15 -15 -15 -26
0 -11 -4 -20 -10 -20 -5 0 -10 -8 -10 -18 0 -10 -11 -29 -25 -42 -14 -13 -25
-31 -25 -40 0 -10 -11 -26 -25 -36 -14 -10 -25 -26 -25 -35 0 -9 -7 -22 -15
-29 -8 -7 -15 -19 -15 -28 0 -8 -11 -25 -25 -38 -14 -13 -25 -29 -25 -37 0 -7
-11 -24 -25 -37 -14 -13 -25 -32 -25 -42 0 -10 -4 -18 -10 -18 -5 0 -10 -8
-10 -18 0 -10 -11 -29 -25 -42 -14 -13 -25 -31 -25 -41 0 -10 -11 -26 -25 -37
-14 -11 -25 -27 -25 -36 0 -9 -18 -32 -40 -52 -22 -20 -40 -43 -40 -52 0 -8
-11 -25 -25 -38 -14 -13 -25 -29 -25 -36 0 -8 -22 -36 -50 -63 -27 -27 -50
-55 -50 -63 0 -8 -34 -47 -75 -88 -41 -41 -75 -81 -75 -88 0 -8 -27 -40 -59
-71 -33 -31 -61 -67 -63 -78 -2 -13 -11 -23 -24 -25 -11 -2 -69 -52 -129 -112
-61 -61 -115 -110 -122 -110 -6 0 -45 -34 -86 -75 -42 -41 -81 -75 -89 -75 -8
0 -32 -18 -53 -40 -21 -22 -45 -40 -53 -40 -7 0 -28 -16 -46 -35 -19 -19 -40
-35 -48 -35 -8 0 -25 -11 -38 -25 -13 -14 -30 -25 -37 -25 -8 0 -31 -18 -52
-40 -21 -22 -45 -40 -54 -40 -9 0 -19 -4 -22 -10 -3 -5 -13 -10 -22 -10 -8 0
-24 -11 -35 -25 -11 -14 -28 -25 -38 -25 -9 0 -23 -7 -30 -15 -7 -8 -18 -15
-25 -15 -7 0 -23 -11 -36 -25 -13 -13 -31 -25 -40 -25 -8 0 -26 -11 -39 -25
-14 -14 -35 -25 -50 -25 -15 0 -36 -11 -50 -25 -13 -14 -32 -25 -42 -25 -10 0
-18 -4 -18 -10 0 -5 -8 -10 -19 -10 -10 0 -24 -7 -31 -15 -7 -8 -21 -15 -31
-15 -11 0 -19 -4 -19 -10 0 -5 -8 -10 -19 -10 -10 0 -24 -7 -31 -15 -7 -8 -21
-15 -31 -15 -11 0 -19 -4 -19 -10 0 -5 -8 -10 -19 -10 -10 0 -24 -7 -31 -15
-7 -8 -21 -15 -31 -15 -11 0 -19 -4 -19 -10 0 -5 -8 -10 -19 -10 -10 0 -24 -7
-31 -15 -7 -8 -21 -15 -31 -15 -11 0 -19 -4 -19 -10 0 -5 -15 -10 -34 -10 -21
0 -36 -6 -40 -15 -3 -8 -14 -15 -25 -15 -11 0 -23 -4 -26 -10 -3 -5 -14 -10
-25 -10 -10 0 -20 -7 -24 -15 -3 -9 -19 -15 -41 -15 -19 0 -35 -4 -35 -10 0
-5 -8 -10 -19 -10 -10 0 -24 -7 -31 -15 -7 -8 -25 -15 -41 -15 -15 0 -31 -4
-34 -10 -3 -5 -19 -10 -34 -10 -16 0 -34 -7 -41 -15 -7 -8 -25 -15 -41 -15
-15 0 -31 -4 -34 -10 -3 -5 -19 -10 -34 -10 -16 0 -34 -7 -41 -15 -7 -8 -25
-15 -41 -15 -15 0 -31 -4 -34 -10 -3 -5 -26 -10 -50 -10 -29 0 -45 -5 -49 -15
-4 -10 -20 -15 -50 -15 -25 0 -48 -4 -51 -10 -3 -5 -26 -10 -50 -10 -29 0 -45
-5 -49 -15 -4 -11 -21 -15 -66 -15 -33 0 -60 -4 -60 -10 0 -5 -20 -10 -44 -10
-26 0 -48 -6 -56 -15 -9 -11 -33 -15 -91 -15 -43 0 -81 -4 -84 -10 -3 -5 -41
-10 -84 -10 -58 0 -82 -4 -91 -15 -9 -11 -35 -15 -106 -15 -56 0 -94 -4 -94
-10 0 -6 -132 -10 -375 -10 -243 0 -375 4 -375 10 0 6 -55 10 -144 10 -115 0
-146 3 -156 15 -9 11 -33 15 -91 15 -43 0 -81 5 -84 10 -3 6 -38 10 -76 10
-53 0 -71 4 -75 15 -5 11 -23 15 -74 15 -38 0 -72 5 -75 10 -3 6 -38 10 -76
10 -53 0 -71 4 -75 15 -4 9 -19 15 -40 15 -19 0 -34 5 -34 10 0 6 -16 10 -35
10 -22 0 -38 6 -41 15 -4 10 -20 15 -49 15 -24 0 -47 4 -50 10 -3 5 -26 10
-51 10 -30 0 -46 5 -50 15 -4 9 -19 15 -40 15 -19 0 -34 5 -34 10 0 6 -16 10
-35 10 -22 0 -38 6 -41 15 -4 9 -19 15 -40 15 -19 0 -34 5 -34 10 0 6 -8 10
-19 10 -10 0 -24 7 -31 15 -7 8 -25 15 -41 15 -15 0 -31 5 -34 10 -3 6 -19 10
-34 10 -16 0 -34 7 -41 15 -7 8 -21 15 -31 15 -11 0 -19 5 -19 10 0 6 -16 10
-35 10 -22 0 -38 6 -41 15 -4 8 -14 15 -24 15 -11 0 -22 4 -25 10 -3 5 -15 10
-26 10 -11 0 -22 7 -25 15 -4 8 -14 15 -24 15 -11 0 -22 5 -25 10 -3 6 -15 10
-26 10 -11 0 -22 7 -25 15 -4 8 -14 15 -24 15 -11 0 -22 4 -25 10 -3 5 -15 10
-26 10 -11 0 -22 7 -25 15 -4 8 -14 15 -24 15 -11 0 -22 5 -25 10 -3 6 -15 10
-26 10 -11 0 -22 7 -25 15 -4 8 -14 15 -24 15 -11 0 -22 5 -25 10 -3 6 -15 10
-26 10 -11 0 -22 7 -25 15 -4 8 -14 15 -23 15 -10 0 -28 11 -41 25 -13 14 -32
25 -42 25 -10 0 -18 5 -18 10 0 6 -8 10 -18 10 -10 0 -29 11 -42 25 -13 14
-30 25 -38 25 -8 0 -32 18 -53 40 -21 22 -45 40 -53 40 -8 0 -18 5 -21 10 -3
5 -13 10 -22 10 -9 0 -33 18 -54 40 -21 22 -44 40 -52 40 -7 0 -28 16 -47 35
-19 19 -40 35 -48 35 -8 0 -37 22 -63 50 -26 27 -54 50 -61 50 -8 0 -32 18
-53 40 -21 22 -45 40 -53 40 -7 0 -69 56 -137 124 -68 68 -131 126 -139 128
-25 5 -276 260 -276 280 0 13 -7 18 -25 18 -19 0 -25 5 -25 21 0 11 -16 35
-35 53 -19 19 -35 40 -35 47 0 8 -34 48 -75 89 -41 41 -75 80 -75 88 0 7 -11
23 -25 36 -14 13 -25 30 -25 38 0 8 -11 25 -25 38 -14 13 -25 30 -25 37 0 8
-18 31 -40 52 -22 21 -40 45 -40 54 0 8 -11 24 -25 35 -14 11 -25 28 -25 37 0
9 -11 26 -25 37 -14 11 -25 27 -25 37 0 10 -11 28 -25 41 -14 13 -25 32 -25
42 0 10 -4 18 -10 18 -5 0 -10 8 -10 18 0 10 -11 29 -25 42 -14 13 -25 31 -25
41 0 9 -7 19 -15 23 -8 3 -15 14 -15 25 0 11 -5 23 -10 26 -5 3 -10 14 -10 25
0 10 -7 20 -15 24 -8 3 -15 14 -15 25 0 11 -11 28 -25 39 -17 13 -25 30 -25
49 0 19 -9 38 -25 53 -15 14 -25 35 -25 51 0 15 -4 31 -10 34 -5 3 -10 14 -10
25 0 10 -7 20 -15 24 -8 3 -15 14 -15 25 0 11 -5 23 -10 26 -5 3 -10 19 -10
35 0 19 -9 35 -25 48 -17 13 -25 30 -25 50 0 16 -7 35 -15 42 -8 7 -15 21 -15
31 0 11 -4 19 -10 19 -5 0 -10 15 -10 34 0 21 -6 36 -15 40 -9 3 -15 19 -15
41 0 19 -4 35 -10 35 -5 0 -10 15 -10 34 0 21 -6 36 -15 40 -9 3 -15 19 -15
41 0 19 -4 35 -10 35 -5 0 -10 15 -10 34 0 21 -6 36 -15 40 -10 4 -15 20 -15
51 0 25 -4 45 -10 45 -5 0 -10 15 -10 34 0 18 -7 39 -15 46 -9 8 -15 30 -15
56 0 24 -4 44 -10 44 -6 0 -10 26 -10 59 0 43 -4 60 -15 65 -9 3 -15 18 -15
35 0 16 -5 33 -10 36 -6 3 -10 37 -10 74 0 49 -4 72 -15 81 -11 9 -15 32 -15
81 0 39 -4 69 -10 69 -6 0 -10 35 -10 84 0 65 -3 85 -15 90 -12 4 -15 30 -15
141 0 83 -4 135 -10 135 -6 0 -10 140 -10 400 0 260 4 400 10 400 6 0 10 43
10 110 0 89 3 112 15 116 12 5 15 25 15 89 0 46 4 87 10 90 5 3 10 37 10 75 0
51 4 69 15 74 11 4 15 21 15 60 0 30 5 58 10 61 6 3 10 26 10 51 0 30 5 46 15
50 10 4 15 20 15 49 0 24 4 47 10 50 5 3 10 26 10 51 0 30 5 46 15 50 8 4 15
14 15 24 0 11 5 22 10 25 6 3 10 26 10 51 0 30 5 46 15 50 9 4 15 19 15 40 0
19 5 34 10 34 6 0 10 16 10 35 0 22 6 38 15 41 9 4 15 19 15 40 0 19 5 34 10
34 6 0 10 16 10 35 0 22 6 38 15 41 8 4 15 14 15 24 0 11 5 22 10 25 6 3 10
19 10 34 0 16 7 34 15 41 8 7 15 21 15 31 0 11 5 19 10 19 6 0 10 16 10 35 0
22 6 38 15 41 8 4 15 14 15 24 0 11 5 22 10 25 6 3 10 15 10 26 0 11 7 22 15
25 8 4 15 14 15 24 0 11 5 22 10 25 6 3 10 15 10 26 0 11 7 22 15 25 8 4 15
14 15 24 0 11 4 22 10 25 5 3 10 15 10 26 0 11 7 22 15 25 8 4 15 14 15 24 0
11 5 22 10 25 6 3 10 15 10 26 0 11 7 22 15 25 8 4 15 17 15 30 0 13 5 24 10
24 6 0 10 8 10 19 0 10 11 27 25 37 14 10 25 26 25 35 0 9 7 22 15 29 8 7 15
19 15 28 0 8 11 25 25 38 14 13 25 30 25 38 0 8 4 18 10 21 5 3 10 15 10 25 0
10 11 27 25 38 14 11 25 28 25 37 0 9 11 26 25 37 14 11 25 27 25 35 0 9 18
33 40 54 22 21 40 44 40 52 0 7 16 28 35 47 19 19 35 40 35 48 0 8 34 48 75
88 41 40 75 79 75 87 0 7 29 42 65 77 36 35 65 71 65 78 0 18 405 422 422 422
8 0 54 41 103 90 49 50 95 90 101 90 6 0 39 27 72 60 34 33 67 60 75 60 7 0
24 11 37 25 13 14 30 25 37 25 8 0 31 18 52 40 21 22 45 40 53 40 8 0 25 11
38 25 13 14 29 25 36 25 6 0 22 11 35 25 13 13 31 25 40 25 8 0 26 11 39 25
13 14 31 25 39 25 9 0 25 11 35 25 10 14 27 25 37 25 10 0 21 5 24 10 3 6 14
10 25 10 10 0 20 7 24 15 3 8 14 15 25 15 11 0 23 5 26 10 3 6 14 10 25 10 10
0 20 7 24 15 3 8 14 15 24 15 10 0 27 9 37 20 20 22 71 50 90 50 7 0 18 7 25
15 7 8 21 15 31 15 11 0 19 5 19 10 0 6 9 10 19 10 11 0 22 4 26 9 10 17 67
41 95 41 16 0 30 7 34 15 3 8 14 15 25 15 11 0 23 5 26 10 3 6 14 10 25 10 10
0 20 7 24 15 3 9 19 15 41 15 19 0 35 5 35 10 0 6 8 10 19 10 10 0 24 7 31 15
7 8 25 15 41 15 15 0 31 5 34 10 3 6 26 10 50 10 29 0 45 5 49 15 3 8 14 15
25 15 11 0 23 5 26 10 3 6 26 10 50 10 29 0 45 5 49 15 3 8 14 15 25 15 11 0
23 5 26 10 3 6 26 10 50 10 29 0 45 5 49 15 3 9 19 15 41 15 19 0 35 5 35 10
0 6 20 10 44 10 26 0 48 6 56 15 8 10 31 15 66 15 29 0 56 5 59 10 3 6 26 10
50 10 29 0 45 5 49 15 4 11 22 15 75 15 38 0 73 5 76 10 3 6 37 10 75 10 51 0
69 4 74 15 4 12 25 15 100 15 52 0 98 4 101 10 4 6 60 10 134 10 102 0 131 3
141 15 10 13 50 15 240 15 202 0 229 -2 234 -16z"/>
<path d="M6706 9045 c-4 -11 -22 -15 -75 -15 -38 0 -73 -4 -76 -10 -3 -5 -26
-10 -50 -10 -29 0 -45 -5 -49 -15 -3 -9 -18 -15 -35 -15 -16 0 -33 -4 -36 -10
-3 -5 -21 -10 -40 -10 -20 0 -35 -6 -39 -15 -3 -8 -14 -15 -25 -15 -11 0 -23
-4 -26 -10 -3 -5 -19 -10 -34 -10 -16 0 -34 -7 -41 -15 -7 -8 -21 -15 -31 -15
-11 0 -19 -4 -19 -10 0 -5 -8 -10 -19 -10 -10 0 -24 -7 -31 -15 -7 -8 -21 -15
-31 -15 -11 0 -19 -4 -19 -10 0 -5 -8 -10 -19 -10 -10 0 -24 -7 -31 -15 -7 -8
-21 -15 -31 -15 -11 0 -19 -4 -19 -10 0 -5 -8 -10 -19 -10 -10 0 -24 -7 -31
-15 -7 -8 -20 -15 -29 -15 -9 0 -25 -11 -35 -25 -10 -14 -27 -25 -37 -25 -10
0 -21 -4 -24 -10 -3 -5 -13 -10 -21 -10 -8 0 -25 -11 -38 -25 -13 -14 -30 -25
-38 -25 -9 0 -21 -7 -28 -15 -7 -8 -20 -15 -29 -15 -9 0 -25 -11 -35 -25 -10
-14 -27 -25 -37 -25 -10 0 -21 -4 -24 -10 -3 -5 -14 -10 -25 -10 -10 0 -20 -7
-24 -15 -3 -8 -14 -15 -24 -15 -10 0 -27 -9 -37 -20 -20 -22 -71 -50 -90 -50
-6 0 -22 -11 -35 -25 -13 -14 -31 -25 -41 -25 -9 0 -19 -7 -23 -15 -3 -8 -13
-15 -23 -15 -9 0 -30 -12 -45 -27 -25 -24 -28 -33 -28 -95 0 -52 -4 -70 -15
-74 -11 -4 -15 -21 -15 -55 0 -27 -4 -49 -10 -49 -6 0 -10 -33 -10 -79 0 -58
-4 -82 -15 -91 -10 -8 -15 -31 -15 -66 0 -46 3 -54 18 -54 10 0 29 11 42 25
13 14 31 25 41 25 10 0 21 5 24 10 3 6 13 10 22 10 8 0 24 11 35 25 11 14 27
25 37 25 10 0 28 11 41 25 13 14 31 25 41 25 9 0 19 7 23 15 3 8 14 15 25 15
11 0 23 5 26 10 3 6 13 10 21 10 8 0 25 11 38 25 13 14 30 25 38 25 9 0 21 7
28 15 7 8 21 15 31 15 11 0 19 5 19 10 0 6 9 10 19 10 11 0 22 4 26 9 7 12 64
41 80 41 6 0 22 11 35 25 13 14 30 25 37 25 8 0 24 11 37 25 13 14 30 25 38
25 9 0 21 7 28 15 7 8 18 15 25 15 7 0 23 11 36 25 13 13 32 25 41 25 9 0 20
5 23 10 3 6 14 10 25 10 10 0 20 7 24 15 3 8 14 15 25 15 11 0 23 5 26 10 3 6
14 10 25 10 10 0 20 7 24 15 3 8 14 15 25 15 11 0 23 5 26 10 3 6 14 10 25 10
10 0 20 7 24 15 3 8 14 15 25 15 11 0 23 5 26 10 3 6 19 10 34 10 16 0 34 7
41 15 7 8 25 15 41 15 15 0 31 5 34 10 3 6 19 10 34 10 16 0 34 7 41 15 8 9
30 15 56 15 24 0 44 5 44 10 0 6 76 10 209 10 129 0 212 -4 216 -10 3 -5 26
-10 51 -10 30 0 46 -5 50 -15 4 -9 19 -15 39 -15 19 0 37 -4 40 -10 3 -5 19
-10 35 -10 16 0 31 -4 35 -9 7 -13 64 -41 82 -41 7 0 16 -7 19 -15 4 -8 14
-15 24 -15 11 0 22 -4 25 -10 3 -5 15 -10 26 -10 11 0 22 -7 25 -15 4 -8 14
-15 23 -15 10 0 28 -11 41 -25 13 -14 29 -25 35 -25 25 0 72 -31 115 -75 24
-25 51 -45 60 -45 18 0 50 -34 50 -54 0 -7 18 -30 40 -50 22 -20 40 -44 40
-54 0 -9 11 -26 25 -36 14 -10 25 -26 25 -36 0 -9 11 -27 25 -40 14 -13 25
-32 25 -42 0 -10 5 -18 10 -18 6 0 10 -8 10 -19 0 -10 7 -24 15 -31 8 -7 15
-25 15 -41 0 -16 5 -29 10 -29 6 0 10 -22 10 -49 0 -34 4 -51 15 -55 9 -3 15
-19 15 -41 0 -19 5 -35 10 -35 6 0 10 -43 10 -109 0 -88 3 -110 15 -115 21 -8
21 -109 0 -126 -13 -11 -13 -14 2 -26 17 -13 17 -15 1 -25 -14 -8 -18 -24 -18
-79 0 -40 -4 -70 -10 -70 -5 0 -10 -22 -10 -49 0 -34 -4 -51 -15 -55 -11 -4
-15 -21 -15 -66 0 -33 -4 -60 -10 -60 -5 0 -10 -9 -10 -20 0 -11 -7 -23 -15
-26 -9 -4 -15 -19 -15 -39 0 -19 -4 -37 -10 -40 -5 -3 -10 -14 -10 -25 0 -10
-7 -20 -15 -24 -8 -3 -15 -18 -15 -34 0 -17 -10 -38 -25 -52 -14 -13 -25 -30
-25 -38 0 -8 -22 -36 -50 -63 -27 -27 -50 -55 -50 -63 0 -18 -99 -113 -137
-133 -16 -8 -32 -21 -36 -29 -5 -8 -23 -14 -42 -14 -19 0 -35 -4 -35 -10 0 -5
-20 -10 -44 -10 -26 0 -48 -6 -56 -15 -11 -13 -66 -15 -381 -15 -239 0 -369
-4 -369 -10 0 -5 -11 -10 -25 -10 -14 0 -25 5 -25 10 0 6 -16 10 -35 10 -19 0
-35 -4 -35 -10 0 -14 -27 -12 -33 3 -4 10 -7 10 -18 0 -10 -10 -185 -13 -805
-13 -695 0 -793 -2 -798 -15 -5 -13 -79 -15 -583 -15 l-578 0 -47 46 c-27 25
-48 54 -48 65 0 10 -4 19 -10 19 -6 0 -10 53 -10 140 0 87 4 140 10 140 6 0
10 20 10 45 0 31 5 47 15 51 11 4 15 21 15 55 0 27 5 49 10 49 6 0 10 15 10
34 0 21 6 36 15 40 10 4 15 20 15 51 0 25 5 45 10 45 6 0 10 11 10 24 0 13 7
26 15 30 8 3 15 15 15 26 0 11 5 20 10 20 6 0 10 11 10 24 0 13 7 26 15 30 8
3 15 15 15 26 0 11 5 20 10 20 6 0 10 11 10 24 0 13 7 26 15 30 8 3 15 13 15
22 0 9 11 27 25 40 14 13 25 30 25 40 0 9 11 25 25 36 14 11 25 27 25 37 0 9
38 54 85 99 52 50 85 89 85 102 0 15 7 20 25 20 20 0 25 5 25 25 0 14 -4 25
-10 25 -5 0 -10 8 -10 19 0 10 -7 24 -15 31 -8 7 -15 25 -15 41 0 16 -4 29
-10 29 -5 0 -10 16 -10 35 0 22 -6 38 -15 41 -11 4 -15 21 -15 55 0 27 -4 49
-10 49 -5 0 -10 19 -10 43 0 24 -3 46 -6 49 -8 9 -344 -331 -344 -348 0 -7
-22 -34 -50 -60 -27 -26 -50 -53 -50 -61 0 -9 -22 -38 -50 -65 -27 -27 -50
-58 -50 -69 0 -10 -4 -19 -10 -19 -5 0 -10 -8 -10 -19 0 -10 -11 -27 -25 -37
-14 -10 -25 -28 -25 -40 0 -12 -7 -24 -15 -28 -8 -3 -15 -12 -15 -19 0 -18
-28 -75 -41 -82 -5 -4 -9 -26 -9 -51 0 -24 -4 -44 -10 -44 -5 0 -10 -8 -10
-19 0 -10 -7 -24 -15 -31 -8 -7 -15 -28 -15 -46 0 -19 -4 -34 -10 -34 -5 0
-10 -20 -10 -45 0 -31 -5 -47 -15 -51 -10 -4 -15 -20 -15 -49 0 -24 -5 -47
-10 -50 -5 -3 -10 -26 -10 -51 0 -30 -5 -46 -15 -50 -11 -5 -15 -24 -15 -80 0
-43 -4 -74 -10 -74 -6 0 -10 -68 -10 -185 0 -117 4 -185 10 -185 6 0 10 -15
10 -34 0 -21 6 -36 15 -40 8 -3 15 -14 15 -25 0 -11 4 -23 10 -26 6 -3 10 -14
10 -25 0 -10 7 -20 15 -24 8 -3 15 -13 15 -23 0 -23 179 -203 202 -203 9 0 25
-11 36 -25 11 -14 27 -25 35 -25 9 0 19 -4 22 -10 3 -5 14 -10 24 -10 10 0 24
-7 31 -15 7 -9 29 -15 51 -15 21 0 41 -4 44 -10 4 -6 157 -10 426 -10 273 0
419 3 419 10 0 14 27 12 33 -2 4 -10 7 -10 18 0 10 9 142 12 591 12 539 0 578
1 587 18 10 16 12 16 25 -1 12 -15 15 -15 26 -2 7 8 18 15 25 15 7 0 18 -7 25
-15 11 -13 14 -13 26 2 13 17 15 17 25 1 13 -23 35 -23 48 0 10 16 12 16 25
-1 14 -18 15 -18 25 0 10 17 12 17 24 1 13 -16 15 -16 30 0 14 14 21 14 35 4
32 -23 43 -24 61 -8 16 14 69 16 494 16 306 0 478 4 482 10 3 6 17 10 31 10
33 0 32 -36 -1 -62 -14 -11 -25 -28 -25 -39 0 -11 -7 -22 -15 -25 -8 -4 -15
-17 -15 -30 0 -13 -4 -24 -10 -24 -5 0 -10 -9 -10 -19 0 -11 -11 -28 -25 -39
-19 -15 -25 -29 -25 -60 0 -23 -6 -45 -15 -52 -9 -8 -15 -30 -15 -56 0 -24 -4
-44 -10 -44 -6 0 -10 -27 -10 -60 0 -33 4 -60 10 -60 6 0 10 -13 10 -30 0 -16
-4 -30 -10 -30 -5 0 -10 -9 -10 -20 0 -11 5 -20 10 -20 6 0 10 -22 10 -49 0
-34 4 -51 15 -55 9 -3 15 -19 15 -41 0 -19 5 -35 10 -35 6 0 10 -9 10 -20 0
-11 7 -23 15 -26 8 -4 15 -17 15 -30 0 -13 5 -24 10 -24 6 0 10 -9 10 -19 0
-11 11 -28 25 -39 14 -11 25 -27 25 -36 0 -10 11 -27 25 -40 14 -13 25 -30 25
-37 0 -18 211 -229 229 -229 8 0 24 -11 37 -25 13 -14 29 -25 37 -25 7 0 28
-16 47 -35 19 -19 42 -35 52 -35 10 0 21 -7 24 -15 4 -8 14 -15 23 -15 10 0
28 -11 41 -25 14 -15 35 -25 51 -25 15 0 31 -4 34 -10 3 -5 15 -10 26 -10 11
0 22 -7 25 -15 4 -8 14 -15 24 -15 11 0 22 -4 25 -10 3 -5 19 -10 34 -10 16 0
34 -7 41 -15 8 -9 30 -15 56 -15 24 0 44 -4 44 -10 0 -5 20 -10 44 -10 26 0
48 -6 56 -15 8 -9 29 -15 56 -15 23 0 46 -4 49 -10 4 -6 55 -10 119 -10 89 0
116 -3 126 -15 10 -13 53 -15 265 -15 216 0 254 2 259 15 4 12 27 15 116 15
67 0 110 4 110 10 0 6 30 10 69 10 49 0 72 4 81 15 7 8 25 15 41 15 15 0 31 5
34 10 3 6 30 10 59 10 35 0 58 5 66 15 7 8 25 15 41 15 15 0 31 5 34 10 3 6
19 10 34 10 16 0 34 7 41 15 7 8 25 15 41 15 15 0 31 5 34 10 3 6 19 10 34 10
16 0 34 7 41 15 7 8 25 15 41 15 15 0 31 5 34 10 3 6 19 10 34 10 16 0 37 10
51 25 14 15 35 25 51 25 14 0 32 7 39 15 7 8 21 15 31 15 11 0 19 5 19 10 0 6
8 10 18 10 10 0 29 11 42 25 13 14 31 25 41 25 9 0 19 7 23 15 3 8 14 15 24
15 10 0 29 11 42 25 13 14 30 25 37 25 8 0 29 16 47 35 19 19 40 35 47 35 20
0 249 232 249 251 0 9 11 25 25 35 14 10 25 28 25 40 0 12 7 24 15 28 8 3 15
13 15 22 0 9 11 27 25 40 14 13 25 32 25 44 0 11 5 20 10 20 6 0 10 9 10 20 0
11 7 23 15 26 8 4 15 17 15 30 0 13 5 24 10 24 6 0 10 13 10 29 0 16 7 34 15
41 8 7 15 28 15 46 0 19 5 34 10 34 6 0 10 26 10 59 0 43 4 60 15 65 12 4 15
32 15 160 0 127 -3 155 -15 160 -10 4 -15 20 -15 50 0 25 -4 48 -10 51 -5 3
-10 14 -10 25 0 10 -7 20 -15 24 -8 3 -15 13 -15 23 0 21 -78 103 -98 103 -8
0 -25 11 -38 25 -13 14 -34 25 -47 25 -26 0 -83 25 -92 41 -4 5 -37 9 -75 9
-38 0 -72 5 -75 10 -3 6 -42 10 -85 10 -43 0 -82 -4 -85 -10 -3 -5 -26 -10
-50 -10 -29 0 -45 -5 -49 -15 -4 -11 -21 -15 -66 -15 -33 0 -60 -4 -60 -10 0
-5 -15 -10 -34 -10 -21 0 -36 -6 -40 -15 -3 -9 -19 -15 -41 -15 -19 0 -35 -4
-35 -10 0 -5 -8 -10 -19 -10 -10 0 -24 -7 -31 -15 -7 -8 -21 -15 -31 -15 -11
0 -19 -4 -19 -10 0 -5 -8 -10 -19 -10 -10 0 -24 -7 -31 -15 -7 -8 -21 -15 -31
-15 -11 0 -19 -4 -19 -10 0 -5 -8 -10 -19 -10 -10 0 -24 -7 -31 -15 -7 -8 -21
-15 -31 -15 -11 0 -19 -4 -19 -10 0 -5 -9 -10 -19 -10 -11 0 -22 -4 -26 -9 -7
-12 -64 -41 -80 -41 -7 0 -18 -7 -25 -15 -7 -8 -25 -15 -41 -15 -15 0 -31 -4
-34 -10 -4 -6 -62 -10 -141 -10 -83 0 -134 4 -134 10 0 6 -16 10 -35 10 -35 0
-35 -1 -35 -43 0 -34 6 -49 28 -70 16 -15 40 -27 54 -27 14 0 31 -7 38 -15 10
-12 39 -15 140 -15 104 0 129 3 134 15 3 9 18 15 35 15 16 0 33 5 36 10 3 6
14 10 24 10 10 0 24 7 31 15 7 8 25 15 41 15 15 0 31 5 34 10 3 6 14 10 25 10
10 0 20 7 24 15 3 8 17 15 31 15 14 0 33 4 43 9 9 5 24 12 32 15 8 4 29 15 45
25 17 11 44 20 61 20 19 1 34 7 38 16 3 8 14 15 25 15 11 0 23 5 26 10 3 6 26
10 50 10 29 0 45 5 49 15 4 10 20 15 50 15 25 0 48 5 51 10 3 6 37 10 75 10
51 0 69 4 74 15 4 11 21 15 59 15 36 0 59 -5 67 -15 7 -8 25 -15 41 -15 15 0
31 -4 34 -10 3 -5 15 -10 26 -10 11 0 22 -7 25 -15 4 -8 17 -15 30 -15 17 0
24 -6 24 -20 0 -10 16 -34 35 -53 19 -19 35 -42 35 -51 0 -9 7 -19 15 -22 10
-4 15 -20 15 -45 0 -22 6 -49 13 -60 10 -17 10 -23 0 -26 -9 -3 -13 -28 -13
-74 0 -53 -4 -71 -15 -75 -11 -5 -15 -22 -15 -65 0 -33 -4 -59 -10 -59 -5 0
-10 -8 -10 -19 0 -10 -7 -24 -15 -31 -8 -7 -15 -21 -15 -31 0 -11 -4 -19 -10
-19 -5 0 -10 -8 -10 -18 0 -10 -11 -29 -25 -42 -14 -13 -25 -31 -25 -39 0 -9
-33 -48 -74 -87 -41 -39 -76 -80 -78 -90 -2 -10 -11 -20 -22 -22 -10 -2 -46
-33 -81 -68 -34 -35 -70 -64 -78 -64 -9 0 -19 -4 -22 -10 -3 -5 -13 -10 -21
-10 -8 0 -32 -18 -53 -40 -21 -22 -45 -40 -54 -40 -9 0 -19 -4 -22 -10 -3 -5
-14 -10 -25 -10 -10 0 -20 -7 -24 -15 -3 -8 -14 -15 -25 -15 -11 0 -23 -4 -26
-10 -3 -5 -14 -10 -25 -10 -10 0 -20 -7 -24 -15 -3 -8 -14 -15 -25 -15 -11 0
-23 -4 -26 -10 -3 -6 -19 -10 -34 -10 -16 0 -34 -7 -41 -15 -7 -8 -25 -15 -41
-15 -15 0 -31 -4 -34 -10 -3 -5 -14 -10 -25 -10 -10 0 -20 -7 -24 -15 -3 -9
-19 -15 -41 -15 -19 0 -35 -4 -35 -10 0 -5 -15 -10 -34 -10 -21 0 -36 -6 -40
-15 -4 -10 -20 -15 -50 -15 -25 0 -48 -4 -51 -10 -3 -6 -26 -10 -50 -10 -29 0
-45 -5 -49 -15 -4 -11 -22 -15 -75 -15 -38 0 -73 -4 -76 -10 -4 -6 -120 -10
-316 -10 -199 0 -309 4 -309 10 0 6 -38 10 -94 10 -71 0 -97 4 -106 15 -8 10
-31 15 -66 15 -29 0 -56 4 -59 10 -3 6 -19 10 -34 10 -16 0 -34 7 -41 15 -7 8
-25 15 -41 15 -15 0 -31 4 -34 10 -3 6 -19 10 -34 10 -16 0 -34 7 -41 15 -7 8
-25 15 -41 15 -15 0 -31 5 -34 10 -3 6 -15 10 -26 10 -11 0 -22 7 -25 15 -4 8
-14 15 -24 15 -11 0 -22 4 -25 10 -3 6 -14 10 -24 10 -10 0 -27 11 -37 25 -10
14 -26 25 -35 25 -8 0 -26 11 -39 25 -13 14 -30 25 -37 25 -20 0 -233 214
-233 234 0 9 -4 16 -10 16 -5 0 -10 16 -10 35 0 22 -6 38 -15 41 -9 4 -15 19
-15 40 0 19 -4 34 -10 34 -6 0 -10 53 -10 140 0 87 4 140 10 140 6 0 10 16 10
35 0 22 6 38 15 41 8 4 15 17 15 30 0 13 5 24 10 24 6 0 10 7 10 17 0 9 18 33
40 54 22 21 40 45 40 53 0 7 34 47 75 87 41 40 75 79 75 87 0 8 68 82 150 164
83 82 150 157 150 165 0 8 11 24 25 35 14 11 25 26 25 35 0 9 11 26 25 39 14
13 25 30 25 38 0 8 5 18 10 21 6 3 10 15 10 26 0 11 7 22 15 25 8 4 15 15 15
26 0 11 11 29 25 40 14 11 25 28 25 39 0 10 5 19 10 19 6 0 10 16 10 35 0 22
6 38 15 41 8 4 15 17 15 30 0 13 5 24 10 24 6 0 10 9 10 20 0 11 7 23 15 26 8
4 15 17 15 30 0 13 5 24 10 24 6 0 10 20 10 45 0 31 5 47 15 51 8 4 15 14 15
24 0 11 5 22 10 25 6 3 10 26 10 51 0 30 5 46 15 50 9 4 15 19 15 40 0 19 5
34 10 34 6 0 10 31 10 74 0 56 4 75 15 80 12 4 15 32 15 160 0 92 4 157 10
161 6 3 10 15 10 26 0 10 -4 19 -10 19 -6 0 -10 52 -10 135 0 111 -3 137 -15
141 -12 5 -15 25 -15 90 0 49 -4 84 -10 84 -5 0 -10 10 -10 21 0 12 -8 28 -17
35 -17 12 -17 13 1 27 17 12 17 14 2 20 -9 4 -16 15 -16 26 0 11 -4 23 -10 26
-5 3 -10 14 -10 25 0 10 -7 20 -15 24 -8 3 -15 14 -15 25 0 11 -4 23 -10 26
-5 3 -10 14 -10 25 0 10 -7 20 -15 24 -8 3 -15 14 -15 25 0 11 -11 28 -25 39
-14 11 -25 27 -25 37 0 9 -16 31 -35 49 -19 19 -35 40 -35 48 0 9 -22 36 -50
62 -27 26 -50 53 -50 61 0 22 -37 55 -60 55 -14 0 -20 7 -20 21 0 23 -22 49
-42 49 -8 0 -32 18 -53 40 -21 22 -45 40 -53 40 -8 0 -29 16 -48 35 -18 19
-39 35 -47 35 -8 0 -20 7 -27 15 -7 8 -19 15 -28 15 -8 0 -25 11 -38 25 -13
14 -30 25 -38 25 -8 0 -18 5 -21 10 -3 6 -15 10 -26 10 -11 0 -22 7 -25 15 -4
8 -14 15 -24 15 -11 0 -22 5 -25 10 -3 6 -15 10 -26 10 -11 0 -22 7 -25 15 -4
8 -14 15 -24 15 -11 0 -22 5 -25 10 -3 6 -19 10 -34 10 -16 0 -34 7 -41 15 -7
8 -21 15 -31 15 -10 0 -21 5 -24 10 -3 6 -23 10 -44 10 -22 0 -44 6 -51 15 -7
8 -21 15 -31 15 -10 0 -21 5 -24 10 -3 6 -35 10 -69 10 -44 0 -67 5 -76 15
-10 12 -47 15 -215 15 -171 0 -204 -2 -209 -15z"/>
<path d="M4656 8645 c-3 -8 -14 -15 -25 -15 -11 0 -23 -4 -26 -10 -3 -5 -12
-10 -19 -10 -16 0 -226 -207 -226 -223 0 -8 -11 -24 -25 -37 -14 -13 -25 -32
-25 -42 0 -10 -7 -21 -15 -24 -9 -4 -15 -19 -15 -40 0 -19 -4 -34 -10 -34 -5
0 -10 -16 -10 -35 0 -22 -6 -38 -15 -41 -11 -4 -15 -21 -15 -55 0 -27 -4 -49
-10 -49 -5 0 -10 -16 -10 -35 0 -19 5 -35 10 -35 6 0 10 -30 10 -70 0 -54 4
-72 15 -76 8 -4 15 -14 15 -24 0 -11 5 -22 10 -25 6 -3 10 -15 10 -26 0 -11 7
-22 15 -25 8 -4 15 -17 15 -30 0 -13 5 -24 10 -24 6 0 10 -8 10 -18 0 -22 60
-82 82 -82 9 0 20 -4 23 -10 3 -5 46 -10 95 -10 49 0 92 5 95 10 3 6 14 10 23
10 22 0 152 130 152 152 0 9 11 25 25 36 14 11 25 29 25 40 0 11 7 22 15 26 8
3 15 15 15 26 0 11 5 20 10 20 6 0 10 11 10 24 0 13 7 26 15 30 10 4 15 20 15
51 0 25 5 45 10 45 6 0 10 27 10 60 0 45 4 62 15 66 12 5 15 30 15 135 0 106
-3 131 -15 135 -11 4 -15 21 -15 55 0 27 -4 49 -10 49 -5 0 -10 8 -10 17 0 23
-79 103 -102 103 -10 0 -21 7 -24 15 -5 11 -23 15 -74 15 -51 0 -69 -4 -74
-15z"/>
<path d="M6430 7495 c-8 -10 -31 -15 -66 -15 -29 0 -56 -4 -59 -10 -3 -5 -19
-10 -34 -10 -16 0 -37 -10 -51 -25 -13 -14 -31 -25 -41 -25 -9 0 -19 -7 -23
-15 -3 -8 -13 -15 -23 -15 -24 0 -173 -150 -173 -173 0 -10 -7 -20 -15 -23 -8
-4 -15 -14 -15 -24 0 -11 -4 -22 -10 -25 -5 -3 -10 -15 -10 -26 0 -11 -7 -22
-15 -25 -9 -4 -15 -19 -15 -40 0 -19 -4 -34 -10 -34 -6 0 -10 -48 -10 -125 0
-77 4 -125 10 -125 6 0 10 -20 10 -44 0 -26 6 -48 15 -56 8 -7 15 -21 15 -31
0 -11 5 -19 10 -19 6 0 10 -8 10 -18 0 -10 11 -29 25 -42 14 -13 25 -29 25
-36 0 -17 87 -104 104 -104 7 0 23 -11 36 -25 13 -14 30 -25 38 -25 8 0 25
-11 38 -25 29 -32 85 -34 114 -5 11 11 20 26 20 33 0 7 6 19 13 26 10 11 10
14 0 18 -7 3 -13 13 -13 23 0 9 -7 23 -15 30 -8 7 -15 25 -15 41 0 15 -4 31
-10 34 -5 3 -10 14 -10 25 0 10 -7 20 -15 24 -12 4 -15 28 -15 126 0 98 3 122
15 126 8 4 15 14 15 24 0 11 5 22 10 25 6 3 10 19 10 34 0 18 13 39 40 66 22
21 40 45 40 53 0 18 84 102 102 102 8 0 25 11 38 25 13 14 32 25 42 25 10 0
18 5 18 10 0 6 8 10 19 10 10 0 24 7 31 15 8 9 30 15 56 15 24 0 44 5 44 10 0
6 8 10 18 10 56 0 72 97 24 143 -15 15 -36 27 -45 27 -10 0 -20 7 -23 15 -4 8
-14 15 -24 15 -11 0 -22 5 -25 10 -3 6 -26 10 -51 10 -30 0 -46 5 -50 15 -4
11 -21 15 -59 15 -34 0 -57 -5 -65 -15z"/>
<path d="M4380 7070 c0 -5 -8 -10 -19 -10 -10 0 -24 -7 -31 -15 -7 -8 -19 -15
-26 -15 -18 0 -94 -76 -94 -93 0 -8 -11 -24 -25 -37 -14 -13 -25 -32 -25 -42
0 -10 -7 -21 -15 -24 -8 -4 -15 -14 -15 -24 0 -11 -4 -22 -10 -25 -6 -3 -10
-52 -10 -111 0 -108 8 -134 43 -134 8 0 20 -7 27 -15 7 -8 25 -15 40 -15 16 0
30 7 34 15 4 10 20 15 50 15 25 0 48 5 51 10 3 6 14 10 25 10 10 0 20 7 24 15
3 8 14 15 24 15 10 0 29 11 42 25 13 14 29 25 37 25 17 0 93 76 93 93 0 8 11
24 25 37 15 14 25 35 25 51 0 14 7 32 15 39 11 9 15 33 15 86 0 68 -2 76 -30
104 l-29 30 -121 0 c-73 0 -120 -4 -120 -10z"/>
<path d="M3715 5247 c-25 -52 -54 -102 -65 -112 -11 -10 -20 -27 -20 -37 0
-10 -7 -21 -15 -24 -8 -4 -15 -14 -15 -23 0 -10 -11 -28 -25 -41 -14 -14 -25
-35 -25 -50 0 -15 -11 -36 -25 -50 -15 -14 -25 -35 -25 -51 0 -15 -4 -31 -10
-34 -5 -3 -10 -14 -10 -24 0 -10 -11 -27 -25 -37 -14 -10 -25 -26 -25 -35 0
-9 -7 -22 -15 -29 -8 -7 -15 -21 -15 -31 0 -11 -4 -19 -10 -19 -5 0 -10 -14
-10 -32 0 -21 -8 -40 -22 -53 -26 -23 -58 -79 -58 -101 0 -8 -4 -14 -10 -14
-5 0 -10 -15 -10 -34 0 -24 -7 -38 -25 -52 -18 -13 -25 -28 -25 -52 0 -20 -6
-35 -15 -38 -8 -4 -15 -14 -15 -24 0 -11 -4 -22 -10 -25 -5 -3 -10 -15 -10
-26 0 -11 -7 -22 -15 -25 -8 -4 -15 -14 -15 -24 0 -11 -4 -22 -10 -25 -5 -3
-10 -15 -10 -26 0 -11 -7 -22 -15 -25 -8 -4 -15 -14 -15 -24 0 -11 -4 -22 -10
-25 -5 -3 -10 -19 -10 -34 0 -16 -7 -34 -15 -41 -8 -7 -15 -21 -15 -31 0 -11
-4 -19 -10 -19 -5 0 -10 -16 -10 -35 0 -22 -6 -38 -15 -41 -8 -4 -15 -14 -15
-24 0 -11 -4 -22 -10 -25 -5 -3 -10 -19 -10 -34 0 -16 -7 -34 -15 -41 -8 -7
-15 -25 -15 -41 0 -15 -4 -31 -10 -34 -5 -3 -10 -15 -10 -26 0 -11 -7 -22 -15
-25 -9 -4 -15 -19 -15 -40 0 -19 -4 -34 -10 -34 -5 0 -10 -16 -10 -35 0 -22
-6 -38 -15 -41 -9 -4 -15 -19 -15 -40 0 -19 -4 -34 -10 -34 -5 0 -10 -16 -10
-35 0 -22 -6 -38 -15 -41 -10 -4 -15 -20 -15 -49 0 -24 -4 -47 -10 -50 -5 -3
-10 -26 -10 -51 0 -30 -5 -46 -15 -50 -10 -4 -15 -20 -15 -49 0 -24 -4 -47
-10 -50 -5 -3 -10 -26 -10 -51 0 -30 -5 -46 -15 -50 -11 -5 -15 -22 -15 -65 0
-33 -4 -59 -10 -59 -6 0 -10 -26 -10 -59 0 -43 -4 -60 -15 -65 -21 -8 -19 -19
5 -34 17 -10 23 -10 35 2 8 8 15 21 15 29 0 8 7 20 15 27 8 7 15 21 15 31 0
11 5 19 10 19 6 0 10 8 10 18 0 10 11 29 25 42 14 14 25 35 25 50 0 15 11 36
25 50 14 14 25 35 25 50 0 15 11 36 25 50 14 13 25 32 25 42 0 10 7 21 15 24
8 4 15 14 15 23 0 10 11 28 25 41 14 14 25 35 25 50 0 15 11 36 25 50 14 13
25 30 25 38 0 8 11 25 25 38 14 13 25 29 25 37 0 7 16 28 35 47 19 19 35 40
35 49 0 8 18 31 40 52 22 21 40 44 40 51 0 8 34 47 75 88 41 41 75 80 75 88 0
17 355 372 372 372 8 0 36 23 63 50 27 28 55 50 63 50 7 0 30 18 51 40 21 22
44 40 52 40 8 0 27 11 43 25 16 14 35 25 43 25 7 0 13 5 13 10 0 6 11 10 25
10 14 0 25 4 25 10 0 5 10 12 23 15 13 4 31 17 41 31 11 13 27 24 37 24 10 0
21 5 24 10 3 6 14 10 25 10 10 0 20 7 24 15 3 8 13 15 23 15 10 0 31 11 47 25
16 14 35 25 43 25 7 0 13 5 13 10 0 6 8 10 19 10 10 0 24 7 31 15 7 8 25 15
41 15 15 0 31 5 34 10 3 6 13 10 20 10 16 0 55 30 55 42 0 5 -38 8 -84 8 -65
0 -85 -3 -90 -15 -4 -12 -24 -15 -90 -15 -47 0 -88 -4 -91 -10 -3 -5 -30 -10
-60 -10 -38 0 -54 -4 -59 -15 -4 -11 -22 -15 -71 -15 -36 0 -73 -4 -83 -9 -9
-5 -57 -23 -107 -41 -106 -38 -240 -105 -266 -134 -26 -27 -31 -18 -15 29 11
30 15 35 19 19 5 -22 11 44 8 93 -2 18 4 47 13 64 10 19 16 63 17 115 1 46 6
84 10 84 9 0 28 86 34 155 6 57 24 292 27 333 1 15 4 0 8 -33 6 -54 7 -50 8
43 1 66 -2 102 -9 102 -5 0 -30 -42 -54 -93z"/>
<path d="M5298 5183 c-21 -30 -41 -72 -44 -93 -4 -22 -13 -45 -20 -51 -8 -6
-14 -22 -14 -35 0 -13 -5 -24 -11 -24 -6 0 -8 -8 -5 -18 4 -12 -1 -26 -14 -37
-11 -10 -20 -24 -20 -32 0 -20 43 -15 63 8 11 13 25 18 36 14 11 -3 21 0 24 9
5 13 88 34 111 28 4 -2 13 2 20 7 20 17 138 33 160 23 12 -6 48 -15 81 -22 33
-7 71 -18 85 -25 14 -7 52 -25 85 -40 33 -15 67 -31 75 -36 8 -5 26 -14 40
-19 32 -13 84 -42 90 -50 9 -12 70 -20 70 -10 0 6 -5 10 -10 10 -6 0 -13 7
-17 16 -3 9 -25 35 -49 57 -24 23 -44 47 -44 53 0 6 -11 16 -25 22 -14 6 -25
16 -25 22 0 15 -17 31 -63 59 -21 13 -43 29 -50 35 -7 7 -22 18 -35 25 -12 6
-22 18 -22 26 0 8 -8 15 -18 15 -9 0 -35 12 -55 26 -21 14 -41 23 -44 20 -3
-3 -19 4 -35 15 -16 12 -36 18 -45 15 -8 -4 -21 -2 -27 2 -6 5 -18 10 -26 10
-8 1 -37 6 -64 11 -26 6 -59 8 -72 5 -13 -4 -30 -2 -37 4 -9 7 -22 -5 -49 -45z"/>
<path d="M6627 5219 c-9 -13 -52 -85 -97 -159 -137 -227 -167 -305 -133 -342
12 -14 14 -21 5 -30 -11 -11 -6 -66 9 -82 4 -5 5 -30 2 -56 -3 -30 -1 -50 6
-54 7 -5 9 -22 5 -47 -4 -25 -2 -44 6 -54 7 -8 10 -25 6 -39 -4 -16 -1 -26 9
-30 18 -6 20 -46 3 -46 -6 0 -3 -9 7 -20 14 -15 18 -34 16 -69 -1 -27 2 -52 8
-55 6 -4 8 -13 4 -21 -3 -8 -2 -23 2 -32 4 -10 8 -45 10 -78 4 -70 24 -149 55
-220 l23 -50 7 31 c4 17 10 36 15 43 4 7 9 93 11 190 3 173 10 355 18 458 12
148 19 213 23 213 14 0 143 -137 143 -152 0 -10 69 -87 155 -173 85 -86 155
-163 155 -171 0 -9 47 -61 104 -117 68 -66 106 -111 108 -127 2 -17 11 -26 28
-30 33 -7 70 -40 70 -63 0 -19 101 -127 118 -127 5 0 16 7 23 16 11 14 10 19
-9 34 -12 10 -22 27 -22 37 0 11 -13 32 -30 48 -16 16 -30 37 -30 48 0 10 -13
30 -30 44 -16 13 -30 32 -30 42 0 9 -16 32 -35 51 -21 21 -33 40 -30 50 3 10
-8 26 -30 44 -19 16 -35 36 -35 46 0 10 -7 23 -15 30 -9 7 -13 20 -10 29 3 10
-8 27 -30 45 -19 16 -35 38 -35 48 0 10 -14 32 -31 49 -17 16 -28 36 -26 43 3
8 -10 27 -29 44 -19 17 -34 39 -34 50 0 11 -13 32 -30 45 -16 14 -30 35 -30
46 0 11 -9 25 -20 31 -12 6 -20 21 -20 35 0 16 -11 32 -30 47 -18 13 -30 31
-30 44 0 12 -13 33 -30 47 -16 14 -30 34 -30 44 0 11 -13 32 -30 48 -16 16
-30 34 -30 40 0 10 -25 63 -45 95 -5 8 -19 42 -31 75 -12 33 -31 78 -42 99
l-19 39 -16 -24z"/>
<path d="M5705 4805 c-5 -2 -37 -11 -70 -20 -101 -27 -128 -36 -197 -66 -36
-16 -78 -29 -92 -29 -14 0 -26 -4 -26 -10 0 -5 -9 -10 -20 -10 -11 0 -20 -4
-20 -10 0 -5 -11 -10 -25 -10 -15 0 -39 -7 -55 -15 -15 -8 -59 -18 -97 -21
-37 -4 -76 -10 -85 -15 -9 -5 -32 -9 -50 -9 -50 0 -107 -19 -117 -38 -5 -10
-12 -34 -16 -55 -4 -20 -11 -37 -16 -37 -5 0 -9 -9 -9 -20 0 -11 -4 -20 -10
-20 -5 0 -10 -13 -10 -29 0 -17 -4 -33 -10 -36 -5 -3 -10 -17 -10 -31 0 -13
-4 -24 -10 -24 -5 0 -10 -13 -10 -30 0 -16 -4 -30 -10 -30 -5 0 -10 -13 -10
-30 0 -16 -4 -30 -10 -30 -5 0 -10 -11 -10 -24 0 -14 -4 -28 -10 -31 -5 -3
-10 -17 -10 -30 0 -13 -4 -27 -10 -30 -5 -3 -10 -17 -10 -30 0 -13 -4 -27 -10
-30 -5 -3 -10 -21 -10 -40 0 -19 -4 -37 -10 -40 -5 -3 -10 -19 -10 -35 0 -16
-9 -45 -20 -65 -11 -20 -20 -44 -20 -55 0 -10 -4 -22 -10 -25 -5 -3 -10 -21
-10 -39 0 -17 -4 -36 -9 -41 -5 -6 -12 -29 -15 -52 -15 -106 -19 -123 -27
-123 -5 0 -9 -22 -9 -50 0 -30 -4 -50 -11 -50 -8 0 -10 -17 -7 -50 4 -35 1
-53 -8 -61 -15 -13 -19 -99 -5 -99 12 0 46 71 42 88 -1 8 4 21 12 30 17 21 31
53 28 69 -1 6 8 28 19 48 11 19 20 41 20 48 0 22 109 230 125 239 8 5 15 15
15 22 0 7 9 21 20 31 11 10 20 26 20 36 0 11 9 24 20 31 11 7 20 20 20 28 0 9
9 22 20 30 11 8 20 21 20 30 0 9 18 32 40 53 22 20 40 41 40 47 0 6 23 33 50
60 28 27 50 54 50 60 0 6 25 35 55 65 30 31 55 60 55 65 0 12 190 200 202 200
5 0 49 41 98 90 49 50 94 90 100 90 7 0 29 18 50 40 21 22 44 40 50 40 7 0 25
14 40 30 15 17 36 30 45 30 9 0 15 6 13 13 -5 12 -25 18 -43 12z"/>
</g>
</svg>
